<svg width="233" height="47" viewBox="0 0 233 47" fill="none" xmlns="http://www.w3.org/2000/svg">
<path d="M5.21 28.2V33.924C5.21 34.104 5.3 34.194 5.48 34.194H7.64C7.82 34.194 7.91 34.104 7.91 33.924V24.204L3.644 22.314C3.32 22.206 2.87 22.026 2.294 21.774C1.718 21.486 1.196 21.072 0.728 20.532C0.296 19.992 0.0800001 19.254 0.0800001 18.318V6.006C0.0800001 4.494 0.548 3.288 1.484 2.388C2.42 1.452 3.644 0.983997 5.156 0.983997H7.964C9.476 0.983997 10.7 1.452 11.636 2.388C12.572 3.288 13.04 4.494 13.04 6.006V13.998L7.91 13.566V6.276C7.91 6.096 7.82 6.006 7.64 6.006H5.48C5.3 6.006 5.21 6.096 5.21 6.276V17.562L9.476 19.452C9.8 19.596 10.25 19.794 10.826 20.046C11.402 20.298 11.906 20.694 12.338 21.234C12.806 21.774 13.04 22.512 13.04 23.448V34.194C13.04 35.706 12.572 36.93 11.636 37.866C10.7 38.766 9.476 39.216 7.964 39.216H5.156C3.644 39.216 2.42 38.766 1.484 37.866C0.548 36.93 0.0800001 35.706 0.0800001 34.194V28.2H5.21ZM15.9708 39V17.022H14.6748L15.2148 12H21.1008V14.106L22.4508 12H23.9088C25.5648 12 26.8788 12.468 27.8508 13.404C28.8588 14.34 29.3628 15.546 29.3628 17.022V33.978H30.7128L30.1728 39H24.2328V17.292C24.2328 17.112 24.1428 17.022 23.9628 17.022H21.1008V39H15.9708ZM32.0898 34.194V16.806C32.0898 15.294 32.5578 14.088 33.4938 13.188C34.4298 12.252 35.6538 11.784 37.1658 11.784H40.5138C42.0258 11.784 43.2498 12.252 44.1858 13.188C45.1218 14.088 45.5898 15.294 45.5898 16.806V23.448H40.4598V17.076C40.4598 16.896 40.3698 16.806 40.1898 16.806H37.4898C37.3098 16.806 37.2198 16.896 37.2198 17.076V23.448H45.5898V28.47H37.2198V33.924C37.2198 34.104 37.3098 34.194 37.4898 34.194H40.1898C40.3698 34.194 40.4598 34.122 40.4598 33.978V31.008H45.5898V34.194C45.5898 35.706 45.1218 36.93 44.1858 37.866C43.2498 38.766 42.0258 39.216 40.5138 39.216H37.1658C35.6538 39.216 34.4298 38.766 33.4938 37.866C32.5578 36.93 32.0898 35.706 32.0898 34.194ZM53.4695 39C51.8135 39 50.4815 38.532 49.4735 37.596C48.5015 36.624 48.0155 35.418 48.0155 33.978V17.022C48.0155 15.546 48.5015 14.34 49.4735 13.404C50.4815 12.468 51.8135 12 53.4695 12H53.6855C54.6575 12 55.5215 12.234 56.2775 12.702V12H61.4075V33.978H62.1635L62.7035 39H56.2775V36.894L54.9275 39H53.4695ZM53.4155 17.022C53.2355 17.022 53.1455 17.112 53.1455 17.292V33.708C53.1455 33.888 53.2355 33.978 53.4155 33.978H56.2775V17.022H53.4155ZM64.2755 39V6.222H62.9795L63.5195 1.2H69.4055V20.802L73.7255 12H78.7475L73.0235 23.61L79.2875 39H74.2655L69.4055 27.066V39H64.2755ZM79.5507 34.194V16.806C79.5507 15.294 80.0187 14.088 80.9547 13.188C81.8907 12.252 83.1147 11.784 84.6267 11.784H87.9747C89.4867 11.784 90.7107 12.252 91.6467 13.188C92.5827 14.088 93.0507 15.294 93.0507 16.806V23.448H87.9207V17.076C87.9207 16.896 87.8307 16.806 87.6507 16.806H84.9507C84.7707 16.806 84.6807 16.896 84.6807 17.076V23.448H93.0507V28.47H84.6807V33.924C84.6807 34.104 84.7707 34.194 84.9507 34.194H87.6507C87.8307 34.194 87.9207 34.122 87.9207 33.978V31.008H93.0507V34.194C93.0507 35.706 92.5827 36.93 91.6467 37.866C90.7107 38.766 89.4867 39.216 87.9747 39.216H84.6267C83.1147 39.216 81.8907 38.766 80.9547 37.866C80.0187 36.93 79.5507 35.706 79.5507 34.194ZM101.362 12V14.376L102.82 12H106.438V17.238H101.362V39H96.2325V17.022H94.9365L95.4765 12H101.362ZM108.08 30.522L113.21 31.062V33.708C113.21 33.888 113.3 33.978 113.48 33.978H115.64C115.82 33.978 115.91 33.888 115.91 33.708V28.686L111.104 26.634C110.528 26.382 109.88 25.986 109.16 25.446C108.44 24.906 108.08 24.024 108.08 22.8V16.806C108.08 15.294 108.548 14.088 109.484 13.188C110.42 12.252 111.644 11.784 113.156 11.784H115.964C117.476 11.784 118.7 12.252 119.636 13.188C120.572 14.088 121.04 15.294 121.04 16.806V20.262L115.91 19.722V17.076C115.91 16.896 115.82 16.806 115.64 16.806H113.48C113.3 16.806 113.21 16.896 113.21 17.076V22.098L118.016 24.15C118.592 24.402 119.24 24.798 119.96 25.338C120.68 25.878 121.04 26.76 121.04 27.984V33.978C121.04 35.49 120.572 36.714 119.636 37.65C118.7 38.55 117.476 39 115.964 39H113.156C111.644 39 110.42 38.55 109.484 37.65C108.548 36.714 108.08 35.49 108.08 33.978V30.522ZM144.096 17.562L143.556 22.584H138.048V39H132.918V6.222H132.108L132.648 1.2H145.176L144.636 6.222H138.048V17.562H144.096ZM151.977 39C150.321 39 148.989 38.532 147.981 37.596C147.009 36.624 146.523 35.418 146.523 33.978V17.022C146.523 15.546 147.009 14.34 147.981 13.404C148.989 12.468 150.321 12 151.977 12H152.193C153.165 12 154.029 12.234 154.785 12.702V12H159.915V33.978H160.671L161.211 39H154.785V36.894L153.435 39H151.977ZM151.923 17.022C151.743 17.022 151.653 17.112 151.653 17.292V33.708C151.653 33.888 151.743 33.978 151.923 33.978H154.785V17.022H151.923ZM162.291 34.194V16.806C162.291 15.294 162.759 14.088 163.695 13.188C164.631 12.252 165.855 11.784 167.367 11.784H171.255C172.767 11.784 173.991 12.252 174.927 13.188C175.863 14.088 176.331 15.294 176.331 16.806V23.934L171.201 23.394V17.076C171.201 16.896 171.111 16.806 170.931 16.806H167.691C167.511 16.806 167.421 16.896 167.421 17.076V33.924C167.421 34.104 167.511 34.194 167.691 34.194H170.931C171.111 34.194 171.201 34.122 171.201 33.978V27.714H176.331V34.194C176.331 35.706 175.863 36.93 174.927 37.866C173.991 38.766 172.767 39.216 171.255 39.216H167.367C165.855 39.216 164.631 38.766 163.695 37.866C162.759 36.93 162.291 35.706 162.291 34.194ZM188.416 33.978V39H185.284C183.772 39 182.548 38.55 181.612 37.65C180.676 36.714 180.208 35.49 180.208 33.978V17.022H177.94L178.372 12H180.208V6.222H178.858L179.29 1.2H185.338V12H188.416L187.984 17.022H185.338V33.978H188.416ZM198.676 17.076C198.676 16.896 198.586 16.806 198.406 16.806H195.166C194.986 16.806 194.896 16.896 194.896 17.076V33.924C194.896 34.104 194.986 34.194 195.166 34.194H198.406C198.586 34.194 198.676 34.122 198.676 33.978V17.076ZM189.766 34.194V16.806C189.766 15.294 190.234 14.088 191.17 13.188C192.106 12.252 193.33 11.784 194.842 11.784H198.73C200.242 11.784 201.466 12.252 202.402 13.188C203.338 14.088 203.806 15.294 203.806 16.806V34.194C203.806 35.706 203.338 36.93 202.402 37.866C201.466 38.766 200.242 39.216 198.73 39.216H194.842C193.33 39.216 192.106 38.766 191.17 37.866C190.234 36.93 189.766 35.706 189.766 34.194ZM211.841 12V14.376L213.299 12H216.917V17.238H211.841V39H206.711V17.022H205.415L205.955 12H211.841ZM224.804 39C223.148 39 221.816 38.532 220.808 37.596C219.836 36.624 219.35 35.418 219.35 33.978V17.022H218.54L219.08 12H224.48V33.978H227.612V12H232.742V41.538C232.742 42.942 232.256 44.058 231.284 44.886C230.312 45.75 229.106 46.182 227.666 46.182H224.426C222.914 46.182 221.69 45.714 220.754 44.778C219.818 43.878 219.35 42.672 219.35 41.16V40.08H224.48V41.538H227.612V36.894L226.262 39H224.804Z" fill="white"/>
</svg>
