<svg width="160" height="47" viewBox="0 0 160 47" fill="none" xmlns="http://www.w3.org/2000/svg">
<path d="M14.85 34.194C14.85 35.706 14.382 36.93 13.446 37.866C12.51 38.766 11.286 39.216 9.774 39.216H6.426C4.914 39.216 3.69 38.766 2.754 37.866C1.818 36.93 1.35 35.706 1.35 34.194V6.222H0.54L1.08 1.2H6.48V33.924C6.48 34.104 6.57 34.194 6.75 34.194H9.45C9.63 34.194 9.72 34.104 9.72 33.924V1.308H14.85V34.194ZM22.8918 12V14.376L24.3498 12H27.9678V17.238H22.8918V39H17.7618V17.022H16.4658L17.0058 12H22.8918ZM29.838 39V6.222H28.542L29.082 1.2H34.968V14.106L36.318 12H37.776C39.432 12 40.746 12.468 41.718 13.404C42.726 14.34 43.23 15.546 43.23 17.022V33.978C43.23 35.418 42.726 36.624 41.718 37.596C40.746 38.532 39.432 39 37.776 39H37.56C36.588 39 35.724 38.766 34.968 38.298V39H29.838ZM37.83 17.022H34.968V33.978H37.83C38.01 33.978 38.1 33.888 38.1 33.708V17.292C38.1 17.112 38.01 17.022 37.83 17.022ZM50.8309 39C49.1749 39 47.8429 38.532 46.8349 37.596C45.8629 36.624 45.3769 35.418 45.3769 33.978V17.022C45.3769 15.546 45.8629 14.34 46.8349 13.404C47.8429 12.468 49.1749 12 50.8309 12H51.0469C52.0189 12 52.8829 12.234 53.6389 12.702V12H58.7689V33.978H59.5249L60.0649 39H53.6389V36.894L52.2889 39H50.8309ZM50.7769 17.022C50.5969 17.022 50.5069 17.112 50.5069 17.292V33.708C50.5069 33.888 50.5969 33.978 50.7769 33.978H53.6389V17.022H50.7769ZM62.1641 39V17.022H60.8681L61.4081 12H67.2941V14.106L68.6441 12H70.1021C71.7581 12 73.0721 12.468 74.0441 13.404C75.0521 14.34 75.5561 15.546 75.5561 17.022V33.978H76.9061L76.3661 39H70.4261V17.292C70.4261 17.112 70.3361 17.022 70.1561 17.022H67.2941V39H62.1641ZM93.3799 28.2V33.924C93.3799 34.104 93.4699 34.194 93.6499 34.194H95.8099C95.9899 34.194 96.0799 34.104 96.0799 33.924V24.204L91.8139 22.314C91.4899 22.206 91.0399 22.026 90.4639 21.774C89.8879 21.486 89.3659 21.072 88.8979 20.532C88.4659 19.992 88.2499 19.254 88.2499 18.318V6.006C88.2499 4.494 88.7179 3.288 89.6539 2.388C90.5899 1.452 91.8139 0.983997 93.3259 0.983997H96.1339C97.6459 0.983997 98.8699 1.452 99.8059 2.388C100.742 3.288 101.21 4.494 101.21 6.006V13.998L96.0799 13.566V6.276C96.0799 6.096 95.9899 6.006 95.8099 6.006H93.6499C93.4699 6.006 93.3799 6.096 93.3799 6.276V17.562L97.6459 19.452C97.9699 19.596 98.4199 19.794 98.9959 20.046C99.5719 20.298 100.076 20.694 100.508 21.234C100.976 21.774 101.21 22.512 101.21 23.448V34.194C101.21 35.706 100.742 36.93 99.8059 37.866C98.8699 38.766 97.6459 39.216 96.1339 39.216H93.3259C91.8139 39.216 90.5899 38.766 89.6539 37.866C88.7179 36.93 88.2499 35.706 88.2499 34.194V28.2H93.3799ZM113.321 33.978V39H110.189C108.677 39 107.453 38.55 106.517 37.65C105.581 36.714 105.113 35.49 105.113 33.978V17.022H102.845L103.277 12H105.113V6.222H103.763L104.195 1.2H110.243V12H113.321L112.889 17.022H110.243V33.978H113.321ZM114.67 34.194V16.806C114.67 15.294 115.138 14.088 116.074 13.188C117.01 12.252 118.234 11.784 119.746 11.784H123.094C124.606 11.784 125.83 12.252 126.766 13.188C127.702 14.088 128.17 15.294 128.17 16.806V23.448H123.04V17.076C123.04 16.896 122.95 16.806 122.77 16.806H120.07C119.89 16.806 119.8 16.896 119.8 17.076V23.448H128.17V28.47H119.8V33.924C119.8 34.104 119.89 34.194 120.07 34.194H122.77C122.95 34.194 123.04 34.122 123.04 33.978V31.008H128.17V34.194C128.17 35.706 127.702 36.93 126.766 37.866C125.83 38.766 124.606 39.216 123.094 39.216H119.746C118.234 39.216 117.01 38.766 116.074 37.866C115.138 36.93 114.67 35.706 114.67 34.194ZM136.218 46.182H131.088V17.022H129.792L130.332 12H136.218V14.106L137.568 12H139.026C140.682 12 141.996 12.468 142.968 13.404C143.976 14.34 144.48 15.546 144.48 17.022V33.978C144.48 35.418 143.976 36.624 142.968 37.596C141.996 38.532 140.682 39 139.026 39H138.81C137.838 39 136.974 38.766 136.218 38.298V46.182ZM139.08 17.022H136.218V33.978H139.08C139.26 33.978 139.35 33.888 139.35 33.708V17.292C139.35 17.112 139.26 17.022 139.08 17.022ZM146.627 30.522L151.757 31.062V33.708C151.757 33.888 151.847 33.978 152.027 33.978H154.187C154.367 33.978 154.457 33.888 154.457 33.708V28.686L149.651 26.634C149.075 26.382 148.427 25.986 147.707 25.446C146.987 24.906 146.627 24.024 146.627 22.8V16.806C146.627 15.294 147.095 14.088 148.031 13.188C148.967 12.252 150.191 11.784 151.703 11.784H154.511C156.023 11.784 157.247 12.252 158.183 13.188C159.119 14.088 159.587 15.294 159.587 16.806V20.262L154.457 19.722V17.076C154.457 16.896 154.367 16.806 154.187 16.806H152.027C151.847 16.806 151.757 16.896 151.757 17.076V22.098L156.563 24.15C157.139 24.402 157.787 24.798 158.507 25.338C159.227 25.878 159.587 26.76 159.587 27.984V33.978C159.587 35.49 159.119 36.714 158.183 37.65C157.247 38.55 156.023 39 154.511 39H151.703C150.191 39 148.967 38.55 148.031 37.65C147.095 36.714 146.627 35.49 146.627 33.978V30.522Z" fill="white"/>
</svg>
